{"title":"Val 2010 Debatten TV4 20100916 5fps.avi","uid":8774214,"size":124636444,"categoryP":"video","categoryS":"tv_shows","magnet":"?xt=urn:btih:602dc485569c6cd86f377a588d067f53341ea6dc&amp;dn=Val+2010+Debatten+TV4+20100916+5fps.avi&amp;tr=udp%3A%2F%2Ftracker.openbittorrent.com%3A80&amp;tr=udp%3A%2F%2Fopen.demonii.com%3A1337&amp;tr=udp%3A%2F%2Ftracker.coppersurfer.tk%3A6969&amp;tr=udp%3A%2F%2Fexodus.desync.com%3A6969","seeders":0,"leechers":0,"uploader":null,"files":1,"time":1375513547,"description":"Val 2010 Debatten TV4 20100916 5fps.avi\n\nGeneral\nComplete name                            : Val 2010 Debatten TV4 20100916 5fps.avi\nFormat                                   : AVI\nFormat/Info                              : Audio Video Interleave\nFile size                                : 119 MiB\nDuration                                 : 1h 36mn\nOverall bit rate                         : 173 Kbps\n\nVideo\nID                                       : 0\nFormat                                   : MPEG-4 Visual\nFormat profile                           : Advanced Simple@L5\nFormat settings, BVOP                    : 2\nFormat settings, QPel                    : No\nFormat settings, GMC                     : No warppoints\nFormat settings, Matrix                  : Default (H.263)\nCodec ID                                 : XVID\nCodec ID/Hint                            : XviD\nDuration                                 : 1h 36mn\nBit rate                                 : 100 Kbps\nWidth                                    : 352 pixels\nHeight                                   : 214 pixels\nDisplay aspect ratio                     : 16:10\nFrame rate                               : 5.000 fps\nColor space                              : YUV\nChroma subsampling                       : 4:2:0\nBit depth                                : 8 bits\nScan type                                : Progressive\nCompression mode                         : Lossy\nBits/(Pixel*Frame)                       : 0.266\nStream size                              : 68.9 MiB (58%)\nWriting library                          : XviD 1.2.1 (UTC 2008-12-04)\n\nAudio\nID                                       : 1\nFormat                                   : MPEG Audio\nFormat version                           : Version 1\nFormat profile                           : Layer 3\nCodec ID                                 : 55\nCodec ID/Hint                            : MP3\nDuration                                 : 1h 36mn\nSource duration                          : 1h 36mn\nBit rate mode                            : Constant\nBit rate                                 : 64.0 Kbps\nChannel(s)                               : 2 channels\nSampling rate                            : 44.1 KHz\nCompression mode                         : Lossy\nStream size                              : 44.1 MiB (37%)\nAlignment                                : Split accross interleaves\nInterleave, duration                     : 26 ms (0.13 video frame)\n\n","torrent":{"xt":"urn:btih:602dc485569c6cd86f377a588d067f53341ea6dc","amp;dn":"Val+2010+Debatten+TV4+20100916+5fps.avi","amp;tr":["udp%3A%2F%2Ftracker.openbittorrent.com%3A80","udp%3A%2F%2Fopen.demonii.com%3A1337","udp%3A%2F%2Ftracker.coppersurfer.tk%3A6969","udp%3A%2F%2Fexodus.desync.com%3A6969"],"infoHash":"602dc485569c6cd86f377a588d067f53341ea6dc","infoHashBuffer":{"type":"Buffer","data":[96,45,196,133,86,156,108,216,111,55,122,88,141,6,127,83,52,30,166,220]},"announce":[],"urlList":[]}}